<?xml version="1.0" encoding="UTF-8" standalone="no"?>
<!-- Created with Inkscape (http://www.inkscape.org/) -->

<svg
   width="210mm"
   height="297mm"
   viewBox="0 0 210 297"
   version="1.1"
   id="svg1"
   xml:space="preserve"
   sodipodi:docname="dentista.svg"
   inkscape:version="1.3 (0e150ed6c4, 2023-07-21)"
   xmlns:inkscape="http://www.inkscape.org/namespaces/inkscape"
   xmlns:sodipodi="http://sodipodi.sourceforge.net/DTD/sodipodi-0.dtd"
   xmlns="http://www.w3.org/2000/svg"
   xmlns:svg="http://www.w3.org/2000/svg"><sodipodi:namedview
     id="namedview1"
     pagecolor="#505050"
     bordercolor="#ffffff"
     borderopacity="1"
     inkscape:showpageshadow="0"
     inkscape:pageopacity="0"
     inkscape:pagecheckerboard="1"
     inkscape:deskcolor="#505050"
     inkscape:document-units="mm"
     inkscape:zoom="0.56390993"
     inkscape:cx="396.33989"
     inkscape:cy="561.25984"
     inkscape:window-width="1600"
     inkscape:window-height="829"
     inkscape:window-x="-8"
     inkscape:window-y="-8"
     inkscape:window-maximized="1"
     inkscape:current-layer="layer1" /><defs
     id="defs1" /><g
     inkscape:label="Capa 1"
     inkscape:groupmode="layer"
     id="layer1"><path
       id="path12"
       style="fill:#000000;stroke-width:1.85956"
       d="m 92.954786,123.27144 c -1.66006,-1.15633 -5.07663,-6.1594 -7.461546,-10.92636 -2.960376,-5.91717 -5.110873,-11.79382 -6.973136,-19.055375 -1.449069,-5.65045 -1.621692,-7.04694 -1.632479,-13.20673 -0.0111,-6.16196 0.107115,-7.14684 1.119014,-9.34206 2.12186,-4.60358 5.112845,-6.648275 9.725117,-6.648275 3.44571,0 5.93097,1.18413 11.660877,5.556065 2.307867,1.76089 4.668537,3.35157 5.245887,3.53481 1.19862,0.38043 3.55044,-0.88475 8.15383,-4.38642 6.28383,-4.779945 11.65728,-5.405555 16.30656,-1.89848 4.53462,3.42059 5.46536,14.74083 1.87055,22.75113 -1.16382,2.59335 -6.12285,8.34854 -6.12285,7.10588 0,-0.28094 0.53119,-1.00979 1.18041,-1.61969 0.64923,-0.60991 1.80142,-2.4751 2.56047,-4.14486 1.14717,-2.52355 1.41366,-3.8763 1.57911,-8.01528 0.39468,-9.87468 -2.82948,-15.0205 -8.61507,-13.74978 -0.77216,0.16959 -3.61239,1.98858 -6.3116,4.04219 -5.23176,3.98038 -8.08806,5.55945 -10.07376,5.56914 -1.81376,0.009 -5.689297,-1.97292 -9.594184,-4.90602 -6.03819,-4.53551 -8.39991,-5.13993 -10.952779,-2.80302 -3.377366,3.09163 -2.908959,14.90923 1.149881,29.010785 3.183968,11.06197 8.603648,21.9384 10.250698,20.57148 0.3483,-0.28908 1.25812,-2.02076 2.02185,-3.84822 2.468304,-5.90619 4.879854,-8.97623 8.600564,-10.94897 0.7877,-0.41764 0.40557,0.15081 -1.06254,1.58046 -2.75672,2.68464 -3.37063,3.81218 -5.03296,9.24393 -1.783357,5.8272 -2.810874,7.38705 -4.844494,7.35438 -0.88344,-0.015 -2.11979,-0.38352 -2.74742,-0.82071 z m 22.066014,-2.196 c -1.42874,-2.34342 -1.2716,-2.70286 1.30869,-2.9937 1.2927,-0.1458 2.56048,-0.60651 2.88333,-1.04802 1.57008,-2.14723 1.63356,0.64035 0.0774,3.39414 -1.47672,2.613 -2.93607,2.83434 -4.2693,0.64758 z M 92.315846,110.71797 C 85.889979,97.912905 82.742122,81.190215 85.685985,75.497415 c 0.955221,-1.84719 1.516851,-2.21346 3.315621,-2.16231 1.55471,0.0443 2.94581,0.91963 8.04641,5.06368 1.894227,1.53902 4.329684,3.25733 5.412114,3.81849 1.08241,0.56117 1.63591,1.02791 1.23001,1.03722 -1.27037,0.0292 -5.499337,-2.22564 -9.589474,-5.11293 -6.40124,-4.51875 -7.49157,-3.52143 -6.96368,6.36951 0.40632,7.6128 3.2587,19.076765 7.13089,28.659625 0.57406,1.42069 0.93829,2.58307 0.80941,2.58307 -0.12885,0 -1.37154,-2.26611 -2.76144,-5.0358 z m 24.967294,3.36708 c 3.06872,-0.80128 3.62738,-1.12341 3.62738,-2.0914 0,-0.96858 1.18225,-0.5867 1.38273,0.44661 0.21462,1.10638 -1.29936,1.77684 -4.65206,2.06013 l -2.88079,0.24339 z m -2.39985,-3.82989 c -0.38305,-0.24324 -0.0583,-0.39432 0.86112,-0.40074 3.38886,-0.0236 6.64214,-1.60389 6.64214,-3.22648 0,-0.5663 -1.00128,-0.65025 -5.53511,-0.46416 l -5.53512,0.22717 3.93608,-0.66241 c 5.3935,-0.90765 7.50532,-1.87467 8.31871,-3.80916 l 0.66054,-1.57095 0.83447,1.27353 c 0.97533,1.48855 0.43894,3.03228 -1.23858,3.5647 -0.71277,0.22622 -0.91848,0.56981 -0.68273,1.14035 0.74375,1.79997 0.7548,2.38738 0.0558,2.96748 -0.8943,0.74221 -7.46601,1.50124 -8.31736,0.96067 z" /><path
       style="fill:#000000"
       d="m 113.50338,165.7064 c 0.96842,-1.83079 1.11299,-3.04233 0.47219,-3.95719 -0.54018,-0.77121 -2.26658,-1.64283 -3.25394,-1.64283 -0.6962,0 -0.88003,0.19531 -1.73033,1.8384 -0.52325,1.01112 -0.95137,2.12616 -0.95137,2.47786 0,0.89692 0.95679,2.01183 2.22816,2.59639 1.74043,0.80022 2.22076,0.60534 3.23529,-1.31263 z"
       id="path10" /><path
       style="fill:#000000"
       d="m 172.06328,182.7944 c -0.0164,-1.67732 -1.88396,-4.2663 -3.83064,-5.31031 -1.41662,-0.75973 -5.33578,-0.82231 -6.74688,-0.10772 -1.2402,0.62804 -2.27758,1.4427 -2.08384,1.63645 0.0865,0.0865 1.27531,0.33559 2.64188,0.55361 3.26851,0.52146 5.2383,1.19223 7.64798,2.60435 1.08924,0.63832 2.06974,1.17371 2.17888,1.18975 0.10914,0.016 0.19582,-0.23871 0.19262,-0.56613 z"
       id="path9" /><path
       style="fill:#000000"
       d="m 134.88311,163.95486 c -0.44974,-0.44973 -0.64943,-0.94323 -0.64943,-1.60489 0,-1.36195 0.36223,-1.87149 1.69124,-2.37904 1.08057,-0.41267 1.27414,-0.41438 2.58271,-0.0227 0.77802,0.23286 1.80629,0.75147 2.28503,1.15247 l 0.87045,0.72909 -1.35893,1.01453 c -2.53103,1.88959 -4.28312,2.24853 -5.42107,1.11057 z"
       id="path8" /><path
       style="fill:#000000"
       d="m 129.12409,178.7211 c -0.15954,-0.15955 1.43923,-3.19967 2.51852,-4.78906 1.04603,-1.54042 2.57173,-2.97774 3.16082,-2.97774 1.27168,0 0.0708,3.25935 -1.93124,5.24179 -1.21004,1.19818 -3.51926,2.75385 -3.7481,2.52501 z"
       id="path7" /><path
       style="fill:#000000"
       d="m 145.20641,193.06718 c 1.32041,-0.5517 3.13861,-2.33172 5.29069,-5.17955 6.43474,-8.51509 9.65436,-15.73378 9.69357,-21.73388 0.0171,-2.61963 -0.75108,-4.4393 -2.65838,-6.29707 -3.20892,-3.12559 -8.3188,-3.18887 -12.88133,-0.15952 -0.77732,0.51611 -1.47978,0.93839 -1.56102,0.93839 -0.0813,0 -0.76769,-0.45743 -1.52543,-1.01651 -1.80671,-1.33303 -2.80264,-1.70158 -4.55559,-1.68583 -1.64434,0.0148 -3.32459,0.80106 -4.17781,1.95502 -0.80254,1.08542 -0.89863,3.11487 -0.21308,4.50029 0.87972,1.77782 1.65227,2.20157 3.9969,2.19234 2.19725,-0.009 2.89872,-0.28023 5.24506,-2.03068 1.69453,-1.26418 1.4717,-1.39425 4.43385,2.58834 1.128,1.51659 2.14719,2.75744 2.26486,2.75744 0.46329,0 -1.03358,-3.04533 -2.76871,-5.63287 l -1.19309,-1.77922 1.10224,-0.64555 c 4.36852,-2.55853 7.69505,-2.62771 10.02052,-0.20839 2.14015,2.22652 2.46325,3.89312 1.55123,8.00145 -0.776,3.4956 -1.97924,6.28862 -4.61301,10.70798 -2.99285,5.02185 -6.93049,10.10732 -7.63445,9.85988 -0.45461,-0.15979 -0.34025,-2.21562 0.31992,-5.75119 0.81745,-4.37784 1.11892,-7.69179 0.8208,-9.02273 -0.33301,-1.4867 -1.29886,-2.3547 -2.61866,-2.35337 -1.67228,0.002 -2.50399,0.75425 -4.00431,3.62319 -3.02492,5.78431 -7.62522,10.39874 -10.3669,10.39874 -1.03152,0 -1.55719,-0.9325 -1.52881,-2.71198 0.0398,-2.49357 0.20273,-2.84097 1.54564,-3.29492 5.90236,-1.99519 10.46116,-8.98813 7.67551,-11.77379 -0.78877,-0.78876 -0.85263,-0.80398 -2.88097,-0.68656 -2.85815,0.16545 -4.62195,1.04894 -7.02801,3.52029 -1.37393,1.41121 -2.22244,2.61284 -3.28659,4.65434 -2.65422,5.09195 -6.33992,10.02804 -7.48778,10.02804 -0.38887,0 -0.4482,-0.13877 -0.3111,-0.72761 0.35401,-1.5205 1.73282,-4.64866 4.84476,-10.99146 5.11098,-10.41729 6.4649,-13.79378 6.4713,-16.13851 0.005,-1.76874 -1.05779,-2.85142 -2.97983,-3.03611 -1.76535,-0.16963 -2.6218,0.34894 -2.6218,1.58746 0,0.97508 -1.07466,3.87716 -3.35704,9.0656 -0.83219,1.89177 -2.22043,5.1062 -3.08498,7.14318 -2.35689,5.55313 -4.16544,8.51601 -7.06605,11.57609 -1.50832,1.59125 -2.61795,2.04383 -2.27043,0.92604 0.20218,-0.65029 1.79566,-3.81274 3.69955,-7.34218 1.39913,-2.59372 2.50277,-5.65466 2.49713,-6.92582 -0.0111,-2.51236 -2.77124,-4.16058 -5.01996,-2.99773 -0.66648,0.34466 -0.74613,0.50686 -0.62262,1.26798 0.19225,1.18469 -2.90452,8.22273 -4.97268,11.3014 -2.143893,3.19141 -4.123452,5.34003 -4.826456,5.23866 -0.836914,-0.12069 -0.659464,-0.78766 1.302929,-4.8972 2.214787,-4.63809 2.843417,-6.58263 2.843417,-8.79544 0,-2.67089 -0.992039,-4.17058 -2.930853,-4.43063 -1.554068,-0.20844 -2.802849,0.50495 -5.282898,3.01797 l -2.182813,2.21183 v -1.20818 c 0,-2.37277 -1.070653,-3.81393 -2.994515,-4.03078 -1.414128,-0.15939 -2.585575,0.34371 -4.286507,1.84093 -0.664747,0.58513 -1.242442,1.01944 -1.283765,0.96513 -0.04132,-0.0543 -0.235023,-0.49978 -0.430442,-0.98994 -0.642832,-1.61235 -2.859365,-2.37346 -4.49852,-1.54469 -0.50447,0.25506 -0.66782,0.55339 -0.688261,1.25697 -0.02729,0.9391 -0.869044,3.11419 -3.220867,8.32266 -1.877096,4.15711 -2.440872,5.96626 -2.440872,7.83272 0,1.48151 0.07329,1.68619 0.899584,2.51249 0.695851,0.69585 1.119238,0.89958 1.869477,0.89958 1.611755,0 1.993439,-0.35709 1.993439,-1.86499 0,-1.14201 0.322016,-1.94142 2.420905,-6.00997 2.524954,-4.89444 4.401852,-7.67816 6.44956,-9.56567 1.946498,-1.79422 2.386685,-0.96527 0.971871,1.83022 -0.405071,0.80036 -1.42822,2.80947 -2.273666,4.46469 -2.712654,5.31085 -3.337626,7.97439 -2.274664,9.6943 0.681922,1.10337 1.786698,1.55717 3.359393,1.3799 1.364825,-0.15383 2.062216,-0.77443 1.677681,-1.49294 -0.634244,-1.18509 3.095452,-8.25625 7.350377,-13.93562 1.703184,-2.27337 2.82494,-3.16424 3.47693,-2.76128 0.442252,0.27332 0.263514,0.75597 -1.863555,5.0322 -0.832423,1.67349 -1.763828,3.85892 -2.069789,4.85651 -1.078416,3.5162 -0.520206,7.03669 1.261859,7.95823 1.700085,0.87915 3.267685,0.25017 5.867485,-2.35425 1.804296,-1.80751 1.839476,-1.82769 1.845176,-1.05834 0.009,1.24061 0.91671,2.94944 1.81234,3.41259 1.79195,0.92665 3.35981,0.32329 5.98715,-2.30405 l 1.92822,-1.92823 0.15825,1.15454 c 0.28551,2.08298 1.64135,3.49216 3.35999,3.49216 1.45082,0 4.32283,-2.20151 6.54272,-5.01525 l 0.51253,-0.64964 0.19753,0.91422 c 0.74056,3.42742 3.73761,5.24827 7.39032,4.48997 4.03712,-0.83811 9.62996,-6.41268 12.26566,-12.22559 0.90401,-1.99375 1.62069,-2.58011 2.31049,-1.89031 0.57428,0.57427 0.36956,3.17009 -0.6922,8.77725 -0.42262,2.23187 -0.7684,4.94595 -0.7684,6.0313 0,1.74239 0.076,2.04937 0.64943,2.62279 0.75601,0.75601 0.9155,0.77651 2.12122,0.27273 z"
       id="path6" /><path
       style="fill:#000000"
       d="m 57.636806,200.37378 c 2.477986,-0.7761 4.33588,-1.83698 6.004704,-3.42876 2.44328,-2.3305 3.389651,-4.92098 3.38615,-9.26885 -0.0021,-2.65039 -0.484598,-4.87578 -2.248629,-10.37187 -2.459028,-7.66147 -3.400664,-12.46712 -2.877304,-14.68438 0.220866,-0.93572 0.348487,-1.06794 1.101558,-1.14126 1.795754,-0.17484 3.916186,1.81723 4.591766,4.31379 0.422795,1.56242 0.130866,3.88524 -0.667905,5.3144 -0.797623,1.4271 -0.640216,2.0103 0.665432,2.46545 2.139627,0.74588 4.227398,-0.0471 4.754291,-1.80566 0.165259,-0.55159 0.251252,-1.88275 0.191095,-2.95814 -0.150466,-2.68975 -1.103124,-4.5784 -3.534239,-7.00665 -3.293111,-3.28922 -7.029844,-4.48229 -10.661167,-3.4039 -2.712838,0.80562 -4.225331,2.85865 -4.467787,6.06448 -0.204204,2.70005 0.221075,4.7125 2.446223,11.57572 1.076972,3.3218 2.141032,6.92512 2.364576,8.00736 1.635902,7.91991 -1.716114,13.53657 -8.539311,14.30853 -4.500548,0.50918 -8.897007,-1.95014 -9.86188,-5.5166 -0.633973,-2.34335 0.412129,-6.1945 2.217283,-8.16275 1.730128,-1.88644 3.998812,-2.69333 5.5299,-1.96678 1.694134,0.80392 2.212212,2.62204 1.401732,4.91918 -0.308972,0.87573 -0.328129,1.21347 -0.08542,1.50592 0.871767,1.05042 3.164747,1.47015 4.559561,0.83463 1.451862,-0.66152 1.918361,-3.3895 0.929082,-5.43308 -1.723335,-3.55993 -7.297211,-5.5085 -10.882999,-3.80458 -3.742924,1.77859 -6.292757,5.97092 -6.292757,10.3463 0,5.11831 3.525039,8.59805 9.619452,9.49585 1.039458,0.15313 2.187579,0.33027 2.551381,0.39366 1.460948,0.25454 6.265881,-0.1099 7.805208,-0.59201 z"
       id="path5" /><path
       style="fill:#000000"
       d="m 83.68006,197.60334 c 0.794417,-0.84566 2.667921,-2.3144 4.18967,-3.2845 3.216647,-2.05059 3.175938,-2.33319 -0.335008,-2.32559 -2.271253,0.005 -3.414937,0.42026 -5.129235,1.86274 -1.798874,1.51366 -2.740987,4.25088 -2.285834,6.64128 l 0.19353,1.0164 0.964936,-1.19031 c 0.530715,-0.65467 1.611588,-1.87868 2.401941,-2.72002 z"
       id="path4" /><path
       style="fill:#000000"
       d="m 128.80972,215.80649 c 3.11094,-0.449 6.20242,-1.23237 8.59896,-2.17895 10.47281,-4.13656 19.28951,-12.72461 24.89201,-24.24649 1.3573,-2.79137 3.25501,-7.56584 3.07768,-7.74317 -0.0332,-0.0332 -0.77385,0.78107 -1.64579,1.80959 -2.61423,3.08364 -10.93306,11.31472 -13.6239,13.48019 -6.78713,5.46199 -13.19493,8.72818 -20.24063,10.31707 -3.41933,0.7711 -11.11677,0.96682 -15.09261,0.38376 -4.87745,-0.71528 -12.66646,-2.86637 -16.392802,-4.5272 -0.436563,-0.19457 -2.103438,-0.9142 -3.704167,-1.59918 -1.600729,-0.68497 -4.196792,-1.88955 -5.769028,-2.67685 -3.490479,-1.74784 -3.449002,-1.451 0.32192,2.30393 7.128187,7.09795 15.464457,11.81322 24.824787,14.04174 4.44677,1.05868 10.12654,1.30336 14.75357,0.63556 z"
       id="path3" /><text
       xml:space="preserve"
       style="font-size:35.0008px;font-family:'Lucida Bright';-inkscape-font-specification:'Lucida Bright';fill:none;stroke-width:2.34818"
       x="59.024002"
       y="154.58316"
       id="text54"><tspan
         sodipodi:role="line"
         id="tspan54"
         x="59.024002"
         y="154.58316"
         style="stroke-width:2.34818">Smail</tspan></text></g></svg>
